<?xml version="1.0" encoding="utf-8"?>
<!-- Generator: Adobe Illustrator 14.0.0, SVG Export Plug-In . SVG Version: 6.00 Build 43363)  -->
<!DOCTYPE svg PUBLIC "-//W3C//DTD SVG 1.1//EN" "http://www.w3.org/Graphics/SVG/1.1/DTD/svg11.dtd">
<svg version="1.1" xmlns="http://www.w3.org/2000/svg" xmlns:xlink="http://www.w3.org/1999/xlink" x="0px" y="0px" width="2272px"
	 height="1872px" viewBox="0 0 2272 1872" enable-background="new 0 0 2272 1872" xml:space="preserve">
<g id="Layer_5">
	<rect id="XMLID_14_" fill="#1A1A1A" width="2272" height="1872"/>
</g>
<g id="Rwrd_1">
	<g id="XMLID_63_">
		<path id="XMLID_79_" fill="none" stroke="#F2F2F2" stroke-width="32.0251" stroke-miterlimit="10" d="M976.5,725.9
			c0,0,9.8,17.2,10.3,32c0,0-87.6,41.4-118.6-68.4c-10.5-37.2-6.9-153.6,95.5-121.6c0,0,3.9,21.2-3,28.1c0,0-52-16.6-45.3,67.9
			C917.2,685.5,923.4,728.4,976.5,725.9z"/>
		<path id="XMLID_78_" fill="none" stroke="#F2F2F2" stroke-width="32.0251" stroke-miterlimit="10" d="M1382.6,725.9
			c0,0-9.8,17.2-10.3,32c0,0,87.6,41.4,118.6-68.4c10.5-37.2,6.9-153.6-95.5-121.6c0,0-3.9,21.2,3,28.1c0,0,52-16.6,45.3,67.9
			C1442,685.5,1435.8,728.4,1382.6,725.9z"/>
		<path id="XMLID_76_" fill="none" stroke="#F2F2F2" stroke-width="32.0251" stroke-miterlimit="10" d="M1328.8,514.2h-297.9
			c-13.4,0-24.3,10.9-24.3,24.3v174.6c0,88.4,66.2,161.2,151.7,171.9c0,0,0,0,0,0l-48.3,197.3h138.8l-47.3-197.3c0,0,0,0,0,0
			c85.5-10.6,151.7-83.5,151.7-171.9V538.5C1353.1,525.1,1342.2,514.2,1328.8,514.2z"/>
		<path id="XMLID_74_" fill="none" stroke="#F2F2F2" stroke-width="32.0251" stroke-miterlimit="10" d="M1332.6,1209.4h-305.7
			c-17.9,0-32.4-14.5-32.4-32.4v-62.3c0-17.9,14.5-32.4,32.4-32.4h305.7c17.9,0,32.4,14.5,32.4,32.4v62.3
			C1365,1194.9,1350.5,1209.4,1332.6,1209.4z"/>
		<linearGradient id="XMLID_9_" gradientUnits="userSpaceOnUse" x1="925.5474" y1="562.395" x2="925.5474" y2="765.562">
			<stop  offset="0" style="stop-color:#FFFFDB"/>
			<stop  offset="0.2104" style="stop-color:#B5B5A6"/>
			<stop  offset="0.3763" style="stop-color:#7F7F7F"/>
			<stop  offset="0.4277" style="stop-color:#737373"/>
			<stop  offset="0.5499" style="stop-color:#5B5B5B"/>
			<stop  offset="0.68" style="stop-color:#4A4A4A"/>
			<stop  offset="0.8224" style="stop-color:#404040"/>
			<stop  offset="1" style="stop-color:#3D3D3D"/>
		</linearGradient>
		<path id="XMLID_71_" fill="url(#XMLID_9_)" d="M976.5,725.9c0,0,9.8,17.2,10.3,32c0,0-87.6,41.4-118.6-68.4
			c-10.5-37.2-6.9-153.6,95.5-121.6c0,0,3.9,21.2-3,28.1c0,0-52-16.6-45.3,67.9C917.2,685.5,923.4,728.4,976.5,725.9z"/>
		<linearGradient id="XMLID_23_" gradientUnits="userSpaceOnUse" x1="1433.6055" y1="562.395" x2="1433.6055" y2="765.562">
			<stop  offset="0" style="stop-color:#FFFFDB"/>
			<stop  offset="0.2104" style="stop-color:#B5B5A6"/>
			<stop  offset="0.3763" style="stop-color:#7F7F7F"/>
			<stop  offset="0.4277" style="stop-color:#737373"/>
			<stop  offset="0.5499" style="stop-color:#5B5B5B"/>
			<stop  offset="0.68" style="stop-color:#4A4A4A"/>
			<stop  offset="0.8224" style="stop-color:#404040"/>
			<stop  offset="1" style="stop-color:#3D3D3D"/>
		</linearGradient>
		<path id="XMLID_70_" fill="url(#XMLID_23_)" d="M1382.6,725.9c0,0-9.8,17.2-10.3,32c0,0,87.6,41.4,118.6-68.4
			c10.5-37.2,6.9-153.6-95.5-121.6c0,0-3.9,21.2,3,28.1c0,0,52-16.6,45.3,67.9C1442,685.5,1435.8,728.4,1382.6,725.9z"/>
		<linearGradient id="XMLID_24_" gradientUnits="userSpaceOnUse" x1="1179.8457" y1="514.2363" x2="1179.8457" y2="1082.356">
			<stop  offset="0" style="stop-color:#FFFFDB"/>
			<stop  offset="0.2104" style="stop-color:#B5B5A6"/>
			<stop  offset="0.3763" style="stop-color:#7F7F7F"/>
			<stop  offset="0.4277" style="stop-color:#737373"/>
			<stop  offset="0.5499" style="stop-color:#5B5B5B"/>
			<stop  offset="0.68" style="stop-color:#4A4A4A"/>
			<stop  offset="0.8224" style="stop-color:#404040"/>
			<stop  offset="1" style="stop-color:#3D3D3D"/>
		</linearGradient>
		<path id="XMLID_68_" fill="url(#XMLID_24_)" d="M1328.8,514.2h-297.9c-13.4,0-24.3,10.9-24.3,24.3v174.6
			c0,88.4,66.2,161.2,151.7,171.9c0,0,0,0,0,0l-48.3,197.3h138.8l-47.3-197.3c0,0,0,0,0,0c85.5-10.6,151.7-83.5,151.7-171.9V538.5
			C1353.1,525.1,1342.2,514.2,1328.8,514.2z"/>
		
			<radialGradient id="XMLID_25_" cx="1179.7227" cy="1145.8623" r="138.4607" gradientTransform="matrix(-0.7071 -0.7071 0.9546 -0.9546 920.079 3073.8857)" gradientUnits="userSpaceOnUse">
			<stop  offset="0" style="stop-color:#FFFFDB"/>
			<stop  offset="3.477734e-002" style="stop-color:#F6F6D3"/>
			<stop  offset="0.2937" style="stop-color:#B5B59E"/>
			<stop  offset="0.5289" style="stop-color:#818174"/>
			<stop  offset="0.7324" style="stop-color:#5C5C56"/>
			<stop  offset="0.8962" style="stop-color:#454544"/>
			<stop  offset="1" style="stop-color:#3D3D3D"/>
		</radialGradient>
		<path id="XMLID_67_" fill="url(#XMLID_25_)" d="M1332.6,1209.4h-305.7c-17.9,0-32.4-14.5-32.4-32.4v-62.3
			c0-17.9,14.5-32.4,32.4-32.4h305.7c17.9,0,32.4,14.5,32.4,32.4v62.3C1365,1194.9,1350.5,1209.4,1332.6,1209.4z"/>
		
			<text id="XMLID_75_" transform="matrix(1 0 0 1 1154.3916 1192.2207)" fill="#FFFDA6" font-family="'MyriadPro-BoldIt'" font-size="141.391" letter-spacing="-10">1</text>
		
			<text id="XMLID_73_" transform="matrix(1 0 0 1 1122.7334 1175.6289)" fill="#FFFDA6" font-family="'MyriadPro-BoldIt'" font-size="86.1117" letter-spacing="-6">#</text>
		<path id="XMLID_64_" fill="none" stroke="#232323" stroke-width="16.0125" stroke-miterlimit="10" d="M976.5,725.9
			c0,0,9.8,17.2,10.3,32c0,0-87.6,41.4-118.6-68.4c-10.5-37.2-6.9-153.6,95.5-121.6c0,0,3.9,21.2-3,28.1c0,0-52-16.6-45.3,67.9
			C917.2,685.5,923.4,728.4,976.5,725.9z"/>
		<path id="XMLID_65_" fill="none" stroke="#232323" stroke-width="16.0125" stroke-miterlimit="10" d="M1382.6,725.9
			c0,0-9.8,17.2-10.3,32c0,0,87.6,41.4,118.6-68.4c10.5-37.2,6.9-153.6-95.5-121.6c0,0-3.9,21.2,3,28.1c0,0,52-16.6,45.3,67.9
			C1442,685.5,1435.8,728.4,1382.6,725.9z"/>
		<path id="XMLID_69_" fill="none" stroke="#232323" stroke-width="16.0125" stroke-miterlimit="10" d="M1328.8,514.2h-297.9
			c-13.4,0-24.3,10.9-24.3,24.3v174.6c0,88.4,66.2,161.2,151.7,171.9c0,0,0,0,0,0l-48.3,197.3h138.8l-47.3-197.3c0,0,0,0,0,0
			c85.5-10.6,151.7-83.5,151.7-171.9V538.5C1353.1,525.1,1342.2,514.2,1328.8,514.2z"/>
		<path id="XMLID_66_" fill="none" stroke="#232323" stroke-width="16.0125" stroke-miterlimit="10" d="M1332.6,1209.4h-305.7
			c-17.9,0-32.4-14.5-32.4-32.4v-62.3c0-17.9,14.5-32.4,32.4-32.4h305.7c17.9,0,32.4,14.5,32.4,32.4v62.3
			C1365,1194.9,1350.5,1209.4,1332.6,1209.4z"/>
		
			<text id="XMLID_72_" transform="matrix(1 0 0 1 1154.3916 1192.2207)" fill="none" stroke="#232323" stroke-width="4.8038" stroke-miterlimit="10" font-family="'MyriadPro-BoldIt'" font-size="141.391" letter-spacing="-10">1</text>
		
			<text id="XMLID_77_" transform="matrix(1 0 0 1 1122.7334 1175.6289)" fill="none" stroke="#232323" stroke-width="4.8038" stroke-miterlimit="10" font-family="'MyriadPro-BoldIt'" font-size="86.1117" letter-spacing="-6">#</text>
	</g>
</g>
<g id="Rwrd_2">
	<g id="XMLID_177_">
		<path id="XMLID_199_" fill="none" stroke="#FFFFFF" stroke-width="12.8567" stroke-miterlimit="10" d="M1180.7,115.2
			c-53.8,0-97.5,43.6-97.5,97.5c0,53.8,43.6,97.5,97.5,97.5c53.8,0,97.5-43.6,97.5-97.5C1278.2,158.8,1234.6,115.2,1180.7,115.2z
			 M1180.7,282.6c-38.6,0-70-31.3-70-70s31.3-70,70-70c38.6,0,70,31.3,70,70S1219.3,282.6,1180.7,282.6z"/>
		<path id="XMLID_198_" fill="none" stroke="#FFFFFF" stroke-width="12.8567" stroke-miterlimit="10" d="M1233.5,313.2
			c-11.4,6.8-27,14-44.2,15.1l12.7,71.7l27.8-39.3l51.7,5.3L1233.5,313.2z"/>
		<path id="XMLID_197_" fill="none" stroke="#FFFFFF" stroke-width="12.8567" stroke-miterlimit="10" d="M1126,312.7l-48.4,53.3
			l51.4-3.6l28.1,37.6l12.9-72.9C1149.9,323.9,1135,317.5,1126,312.7z"/>
		<g id="XMLID_194_">
			<path id="XMLID_195_" fill="none" stroke="#FFFFFF" stroke-width="12.8567" stroke-miterlimit="10" d="M1193.1,170.2v84.6h-24
				v-84.6H1193.1z"/>
		</g>
		<linearGradient id="XMLID_26_" gradientUnits="userSpaceOnUse" x1="1180.7148" y1="310.1602" x2="1180.7148" y2="115.1763">
			<stop  offset="0" style="stop-color:#270051"/>
			<stop  offset="4.095997e-002" style="stop-color:#3F064B"/>
			<stop  offset="0.1188" style="stop-color:#671042"/>
			<stop  offset="0.1993" style="stop-color:#87183A"/>
			<stop  offset="0.2818" style="stop-color:#A11F35"/>
			<stop  offset="0.3671" style="stop-color:#B32330"/>
			<stop  offset="0.457" style="stop-color:#BE262E"/>
			<stop  offset="0.5591" style="stop-color:#C1272D"/>
			<stop  offset="0.9946" style="stop-color:#C1912D"/>
		</linearGradient>
		<path id="XMLID_191_" fill="url(#XMLID_26_)" d="M1180.7,115.2c-53.8,0-97.5,43.6-97.5,97.5c0,53.8,43.6,97.5,97.5,97.5
			c53.8,0,97.5-43.6,97.5-97.5C1278.2,158.8,1234.6,115.2,1180.7,115.2z M1180.7,282.6c-38.6,0-70-31.3-70-70s31.3-70,70-70
			c38.6,0,70,31.3,70,70S1219.3,282.6,1180.7,282.6z"/>
		<linearGradient id="XMLID_27_" gradientUnits="userSpaceOnUse" x1="1235.4258" y1="400.0366" x2="1235.4258" y2="313.1958">
			<stop  offset="0.3602" style="stop-color:#E33C21"/>
			<stop  offset="0.4395" style="stop-color:#E34320"/>
			<stop  offset="0.5564" style="stop-color:#E2571E"/>
			<stop  offset="0.6965" style="stop-color:#E2781A"/>
			<stop  offset="0.8532" style="stop-color:#E1A414"/>
			<stop  offset="1" style="stop-color:#E0D50E"/>
		</linearGradient>
		<path id="XMLID_190_" fill="url(#XMLID_27_)" d="M1233.5,313.2c-11.4,6.8-27,14-44.2,15.1l12.7,71.7l27.8-39.3l51.7,5.3
			L1233.5,313.2z"/>
		<linearGradient id="XMLID_35_" gradientUnits="userSpaceOnUse" x1="1123.8325" y1="400.0366" x2="1123.8325" y2="312.7314">
			<stop  offset="0.3602" style="stop-color:#E33C21"/>
			<stop  offset="0.4395" style="stop-color:#E34320"/>
			<stop  offset="0.5564" style="stop-color:#E2571E"/>
			<stop  offset="0.6965" style="stop-color:#E2781A"/>
			<stop  offset="0.8532" style="stop-color:#E1A414"/>
			<stop  offset="1" style="stop-color:#E0D50E"/>
		</linearGradient>
		<path id="XMLID_189_" fill="url(#XMLID_35_)" d="M1126,312.7l-48.4,53.3l51.4-3.6l28.1,37.6l12.9-72.9
			C1149.9,323.9,1135,317.5,1126,312.7z"/>
		<g id="XMLID_186_">
			<linearGradient id="XMLID_36_" gradientUnits="userSpaceOnUse" x1="1181.1465" y1="254.7295" x2="1181.1465" y2="170.1567">
				<stop  offset="0" style="stop-color:#E33C21"/>
				<stop  offset="0.1567" style="stop-color:#E33F21"/>
				<stop  offset="0.2763" style="stop-color:#E3491F"/>
				<stop  offset="0.3836" style="stop-color:#E2591D"/>
				<stop  offset="0.4837" style="stop-color:#E2701B"/>
				<stop  offset="0.5789" style="stop-color:#E18E17"/>
				<stop  offset="0.669" style="stop-color:#E1B212"/>
				<stop  offset="0.7419" style="stop-color:#E0D50E"/>
				<stop  offset="0.7554" style="stop-color:#E3D91F"/>
				<stop  offset="0.8017" style="stop-color:#EBE454"/>
				<stop  offset="0.8471" style="stop-color:#F2EE80"/>
				<stop  offset="0.8905" style="stop-color:#F8F5A2"/>
				<stop  offset="0.9315" style="stop-color:#FCFBBB"/>
				<stop  offset="0.9691" style="stop-color:#FEFECA"/>
				<stop  offset="1" style="stop-color:#FFFFCF"/>
			</linearGradient>
			<path id="XMLID_187_" fill="url(#XMLID_36_)" d="M1193.1,170.2v84.6h-24v-84.6H1193.1z"/>
		</g>
		<path id="XMLID_183_" fill="none" stroke="#270051" stroke-width="6.4283" stroke-miterlimit="10" d="M1180.7,115.2
			c-53.8,0-97.5,43.6-97.5,97.5c0,53.8,43.6,97.5,97.5,97.5c53.8,0,97.5-43.6,97.5-97.5C1278.2,158.8,1234.6,115.2,1180.7,115.2z
			 M1180.7,282.6c-38.6,0-70-31.3-70-70s31.3-70,70-70c38.6,0,70,31.3,70,70S1219.3,282.6,1180.7,282.6z"/>
		<path id="XMLID_182_" fill="none" stroke="#270051" stroke-width="6.4283" stroke-miterlimit="10" d="M1233.5,313.2
			c-11.4,6.8-27,14-44.2,15.1l12.7,71.7l27.8-39.3l51.7,5.3L1233.5,313.2z"/>
		<path id="XMLID_181_" fill="none" stroke="#270051" stroke-width="6.4283" stroke-miterlimit="10" d="M1126,312.7l-48.4,53.3
			l51.4-3.6l28.1,37.6l12.9-72.9C1149.9,323.9,1135,317.5,1126,312.7z"/>
		<g id="XMLID_178_">
			<path id="XMLID_179_" fill="none" stroke="#270051" stroke-width="7.714" stroke-miterlimit="10" d="M1193.1,170.2v84.6h-24
				v-84.6H1193.1z"/>
		</g>
	</g>
</g>
<g id="Rwrd_3">
	<g id="XMLID_60_">
		<path id="XMLID_15_" fill="none" stroke="#FFFFFF" stroke-width="14.0205" stroke-miterlimit="10" d="M740.8,744.1
			c-0.5-5-24.6-25.9-24.6-25.9s-4.8-5-1.5-13.6c3.4-8.6,9.2-28,7.3-31.8c-1.9-3.9-32.8-8.9-32.8-8.9s-8.6-2.6-9.9-11.3
			c-1.3-8.7-5-29.4-10-31.8c-5-2.4-32,8.7-32,8.7s-7.3,2.4-13.9-3.7s-18.8-24.4-25.2-23.3c-6.5,1.1-22.6,27.5-32.3,27.5
			c-9.7,0-32-13.7-37.8-8.1c-5.8,5.7-5.5,34.9-13.4,39c-7.9,4-35.2,5.8-38.3,12.6c-3.1,6.8,11.3,31.7,7.1,42.4
			c-4.2,10.7-26.3,17.9-25.9,28.9c0.4,11,23.3,15.9,27.2,32.3c3.9,16.4-12.7,27.2-8.4,38.1c4.3,11,26.3,3.2,38.8,13.6
			c12.5,10.3,3,25.4,11.2,36.4c8.2,11,30.8-9.9,41.6-6.3c10.8,3.7,21.8,23.5,30,26.3c8.2,2.8,24.6-26.3,33.6-26.1s28.9,7.1,28.9,7.1
			s16.2,7.5,15.1-14.9c0,0,0.5-18.4,9.5-24.4c9.1-6,33.9-6.3,36.9-11.8c2.9-5.5-7.4-31.2-7.4-31.2s-3.6-6.8,2.1-13.6
			C722.2,763.7,741.2,749.1,740.8,744.1z M601.7,833.6c-48.3,0-87.5-39.2-87.5-87.5c0-48.3,39.2-87.5,87.5-87.5
			c48.3,0,87.5,39.2,87.5,87.5C689.2,794.4,650.1,833.6,601.7,833.6z"/>
		
			<circle id="XMLID_18_" fill="none" stroke="#F2F2F2" stroke-width="14.0205" stroke-miterlimit="10" cx="601.7" cy="746.1" r="64"/>
		<path id="XMLID_20_" fill="none" stroke="#FFFFFF" stroke-width="14.0205" stroke-miterlimit="10" d="M565.5,885.4L516.7,1017
			l-25.2-53.3l-53.3,25.2L490.8,844c0,0,8.5-3.8,11,2.9c2.5,6.7,1.2,33.4,17.8,40.3c16.6,6.9,35.8-8.4,41.2-6.9
			C566.2,881.9,565.5,885.4,565.5,885.4z"/>
		<path id="XMLID_19_" fill="none" stroke="#FFFFFF" stroke-width="14.0205" stroke-miterlimit="10" d="M632.6,885.4l48.8,131.6
			l25.2-53.3l53.3,25.2L707.3,844c0,0-8.5-3.8-11,2.9c-2.5,6.7-1.2,33.4-17.8,40.3c-16.6,6.9-35.8-8.4-41.2-6.9
			C632,881.9,632.6,885.4,632.6,885.4z"/>
		<linearGradient id="XMLID_37_" gradientUnits="userSpaceOnUse" x1="599.1538" y1="885.4912" x2="599.1538" y2="602.4766">
			<stop  offset="0" style="stop-color:#3F1900"/>
			<stop  offset="0.6183" style="stop-color:#FBB03B"/>
			<stop  offset="0.6655" style="stop-color:#FBBD38"/>
			<stop  offset="0.8079" style="stop-color:#FBE030"/>
			<stop  offset="0.9245" style="stop-color:#FBF62B"/>
			<stop  offset="1" style="stop-color:#FBFE29"/>
		</linearGradient>
		<path id="XMLID_10_" fill="url(#XMLID_37_)" d="M740.8,744.1c-0.5-5-24.6-25.9-24.6-25.9s-4.8-5-1.5-13.6c3.4-8.6,9.2-28,7.3-31.8
			c-1.9-3.9-32.8-8.9-32.8-8.9s-8.6-2.6-9.9-11.3c-1.3-8.7-5-29.4-10-31.8c-5-2.4-32,8.7-32,8.7s-7.3,2.4-13.9-3.7
			s-18.8-24.4-25.2-23.3c-6.5,1.1-22.6,27.5-32.3,27.5c-9.7,0-32-13.7-37.8-8.1c-5.8,5.7-5.5,34.9-13.4,39
			c-7.9,4-35.2,5.8-38.3,12.6c-3.1,6.8,11.3,31.7,7.1,42.4c-4.2,10.7-26.3,17.9-25.9,28.9c0.4,11,23.3,15.9,27.2,32.3
			c3.9,16.4-12.7,27.2-8.4,38.1c4.3,11,26.3,3.2,38.8,13.6c12.5,10.3,3,25.4,11.2,36.4c8.2,11,30.8-9.9,41.6-6.3
			c10.8,3.7,21.8,23.5,30,26.3c8.2,2.8,24.6-26.3,33.6-26.1s28.9,7.1,28.9,7.1s16.2,7.5,15.1-14.9c0,0,0.5-18.4,9.5-24.4
			c9.1-6,33.9-6.3,36.9-11.8c2.9-5.5-7.4-31.2-7.4-31.2s-3.6-6.8,2.1-13.6C722.2,763.7,741.2,749.1,740.8,744.1z M601.7,833.6
			c-48.3,0-87.5-39.2-87.5-87.5c0-48.3,39.2-87.5,87.5-87.5c48.3,0,87.5,39.2,87.5,87.5C689.2,794.4,650.1,833.6,601.7,833.6z"/>
		<linearGradient id="XMLID_38_" gradientUnits="userSpaceOnUse" x1="601.7378" y1="810.0815" x2="601.7378" y2="682.0566">
			<stop  offset="0" style="stop-color:#C75400"/>
			<stop  offset="7.120750e-002" style="stop-color:#D1660C"/>
			<stop  offset="0.2209" style="stop-color:#E38620"/>
			<stop  offset="0.3654" style="stop-color:#F09D2F"/>
			<stop  offset="0.5008" style="stop-color:#F8AB38"/>
			<stop  offset="0.6183" style="stop-color:#FBB03B"/>
			<stop  offset="0.7154" style="stop-color:#FBB33B"/>
			<stop  offset="0.7979" style="stop-color:#FBBE3B"/>
			<stop  offset="0.875" style="stop-color:#FBCF3B"/>
			<stop  offset="0.9485" style="stop-color:#FBE83B"/>
			<stop  offset="1" style="stop-color:#FBFE3B"/>
		</linearGradient>
		<circle id="XMLID_13_" fill="url(#XMLID_38_)" cx="601.7" cy="746.1" r="64"/>
		<linearGradient id="XMLID_39_" gradientUnits="userSpaceOnUse" x1="501.8521" y1="1016.9902" x2="501.8521" y2="842.9673">
			<stop  offset="0" style="stop-color:#3F1900"/>
			<stop  offset="0.1597" style="stop-color:#421B01"/>
			<stop  offset="0.2736" style="stop-color:#4B2304"/>
			<stop  offset="0.3733" style="stop-color:#5B2F09"/>
			<stop  offset="0.4649" style="stop-color:#714110"/>
			<stop  offset="0.5508" style="stop-color:#8E5819"/>
			<stop  offset="0.6327" style="stop-color:#B17424"/>
			<stop  offset="0.7098" style="stop-color:#DA9531"/>
			<stop  offset="0.7634" style="stop-color:#FBB03B"/>
			<stop  offset="0.8236" style="stop-color:#FBB33B"/>
			<stop  offset="0.8747" style="stop-color:#FBBE3B"/>
			<stop  offset="0.9226" style="stop-color:#FBCF3B"/>
			<stop  offset="0.9681" style="stop-color:#FBE83B"/>
			<stop  offset="1" style="stop-color:#FBFE3B"/>
		</linearGradient>
		<path id="XMLID_21_" fill="url(#XMLID_39_)" d="M565.5,885.4L516.7,1017l-25.2-53.3l-53.3,25.2L490.8,844c0,0,8.5-3.8,11,2.9
			c2.5,6.7,1.2,33.4,17.8,40.3c16.6,6.9,35.8-8.4,41.2-6.9C566.2,881.9,565.5,885.4,565.5,885.4z"/>
		<linearGradient id="XMLID_40_" gradientUnits="userSpaceOnUse" x1="696.3257" y1="1016.9902" x2="696.3257" y2="842.9673">
			<stop  offset="0" style="stop-color:#3F1900"/>
			<stop  offset="0.1597" style="stop-color:#421B01"/>
			<stop  offset="0.2736" style="stop-color:#4B2304"/>
			<stop  offset="0.3733" style="stop-color:#5B2F09"/>
			<stop  offset="0.4649" style="stop-color:#714110"/>
			<stop  offset="0.5508" style="stop-color:#8E5819"/>
			<stop  offset="0.6327" style="stop-color:#B17424"/>
			<stop  offset="0.7098" style="stop-color:#DA9531"/>
			<stop  offset="0.7634" style="stop-color:#FBB03B"/>
			<stop  offset="0.8236" style="stop-color:#FBB33B"/>
			<stop  offset="0.8747" style="stop-color:#FBBE3B"/>
			<stop  offset="0.9226" style="stop-color:#FBCF3B"/>
			<stop  offset="0.9681" style="stop-color:#FBE83B"/>
			<stop  offset="1" style="stop-color:#FBFE3B"/>
		</linearGradient>
		<path id="XMLID_22_" fill="url(#XMLID_40_)" d="M632.6,885.4l48.8,131.6l25.2-53.3l53.3,25.2L707.3,844c0,0-8.5-3.8-11,2.9
			c-2.5,6.7-1.2,33.4-17.8,40.3c-16.6,6.9-35.8-8.4-41.2-6.9C632,881.9,632.6,885.4,632.6,885.4z"/>
		<path id="XMLID_8_" fill="none" stroke="#3F1900" stroke-width="7.0103" stroke-miterlimit="10" d="M740.8,744.1
			c-0.5-5-24.6-25.9-24.6-25.9s-4.8-5-1.5-13.6c3.4-8.6,9.2-28,7.3-31.8c-1.9-3.9-32.8-8.9-32.8-8.9s-8.6-2.6-9.9-11.3
			c-1.3-8.7-5-29.4-10-31.8c-5-2.4-32,8.7-32,8.7s-7.3,2.4-13.9-3.7s-18.8-24.4-25.2-23.3c-6.5,1.1-22.6,27.5-32.3,27.5
			c-9.7,0-32-13.7-37.8-8.1c-5.8,5.7-5.5,34.9-13.4,39c-7.9,4-35.2,5.8-38.3,12.6c-3.1,6.8,11.3,31.7,7.1,42.4
			c-4.2,10.7-26.3,17.9-25.9,28.9c0.4,11,23.3,15.9,27.2,32.3c3.9,16.4-12.7,27.2-8.4,38.1c4.3,11,26.3,3.2,38.8,13.6
			c12.5,10.3,3,25.4,11.2,36.4c8.2,11,30.8-9.9,41.6-6.3c10.8,3.7,21.8,23.5,30,26.3c8.2,2.8,24.6-26.3,33.6-26.1s28.9,7.1,28.9,7.1
			s16.2,7.5,15.1-14.9c0,0,0.5-18.4,9.5-24.4c9.1-6,33.9-6.3,36.9-11.8c2.9-5.5-7.4-31.2-7.4-31.2s-3.6-6.8,2.1-13.6
			C722.2,763.7,741.2,749.1,740.8,744.1z M601.7,833.6c-48.3,0-87.5-39.2-87.5-87.5c0-48.3,39.2-87.5,87.5-87.5
			c48.3,0,87.5,39.2,87.5,87.5C689.2,794.4,650.1,833.6,601.7,833.6z"/>
		<circle id="XMLID_4_" fill="none" stroke="#3F1900" stroke-width="7.0103" stroke-miterlimit="10" cx="601.7" cy="746.1" r="64"/>
		<path id="XMLID_2_" fill="none" stroke="#3F1900" stroke-width="7.0103" stroke-miterlimit="10" d="M565.5,885.4L516.7,1017
			l-25.2-53.3l-53.3,25.2L490.8,844c0,0,8.5-3.8,11,2.9c2.5,6.7,1.2,33.4,17.8,40.3c16.6,6.9,35.8-8.4,41.2-6.9
			C566.2,881.9,565.5,885.4,565.5,885.4z"/>
		<path id="XMLID_3_" fill="none" stroke="#3F1900" stroke-width="7.0103" stroke-miterlimit="10" d="M632.6,885.4l48.8,131.6
			l25.2-53.3l53.3,25.2L707.3,844c0,0-8.5-3.8-11,2.9c-2.5,6.7-1.2,33.4-17.8,40.3c-16.6,6.9-35.8-8.4-41.2-6.9
			C632,881.9,632.6,885.4,632.6,885.4z"/>
	</g>
</g>
<g id="Rwrd_4">
	<g id="XMLID_118_">
		<linearGradient id="XMLID_41_" gradientUnits="userSpaceOnUse" x1="1717.8848" y1="1032.1934" x2="1717.8848" y2="587.9702">
			<stop  offset="0" style="stop-color:#002449"/>
			<stop  offset="0.1882" style="stop-color:#00247F"/>
			<stop  offset="0.7303" style="stop-color:#2A97FE"/>
			<stop  offset="0.7366" style="stop-color:#2A98FF"/>
			<stop  offset="0.7376" style="stop-color:#2B98FF"/>
			<stop  offset="0.8339" style="stop-color:#7FC4FF"/>
			<stop  offset="0.9126" style="stop-color:#BDE4FF"/>
			<stop  offset="0.97" style="stop-color:#E3F8FF"/>
			<stop  offset="1" style="stop-color:#F2FFFF"/>
		</linearGradient>
		<path id="XMLID_130_" fill="url(#XMLID_41_)" stroke="#F2F2F2" stroke-width="13.6277" stroke-miterlimit="10" d="M1855.5,725.7
			c-0.5-4.9-23.9-25.1-23.9-25.1s-4.7-4.9-1.4-13.2c3.3-8.3,9-27.2,7.1-31c-1.9-3.8-31.9-8.6-31.9-8.6s-8.3-2.5-9.6-11
			c-1.3-8.5-4.9-28.6-9.7-31c-4.9-2.4-31.1,8.5-31.1,8.5s-7.1,2.4-13.5-3.6c-6.4-6-18.2-23.7-24.5-22.6c-6.3,1.1-22,26.7-31.4,26.7
			c-9.4,0-31.1-13.4-36.8-7.9c-5.7,5.5-5.3,33.9-13,37.9c-7.7,3.9-34.3,5.7-37.2,12.3c-3,6.6,11,30.8,6.9,41.2
			c-4.1,10.4-25.6,17.4-25.1,28.1c0.4,10.7,22.6,15.5,26.4,31.4c3.8,15.9-12.4,26.4-8.2,37.1c4.2,10.7,25.6,3.1,37.7,13.2
			c12.2,10.1,2.9,24.7,10.9,35.4c4.2,5.7,12.5,2.6,20.8-1l0,0l-12.8,189l62.9-57.8l63.3,58.7L1771,842.4c3.7,1.2,6.4,2.1,6.4,2.1
			s15.7,7.3,14.7-14.5c0,0,0.5-17.9,9.3-23.7c8.8-5.8,33-6.1,35.8-11.5s-7.2-30.3-7.2-30.3s-3.5-6.6,2-13.2
			C1837.5,744.7,1856,730.5,1855.5,725.7z M1720.4,812.6c-47,0-85.1-38.1-85.1-85.1c0-47,38.1-85.1,85.1-85.1
			c47,0,85.1,38.1,85.1,85.1C1805.5,774.5,1767.4,812.6,1720.4,812.6z"/>
		<linearGradient id="XMLID_42_" gradientUnits="userSpaceOnUse" x1="1720.3984" y1="781.5898" x2="1720.3984" y2="673.4888">
			<stop  offset="0" style="stop-color:#00247F"/>
			<stop  offset="1.287418e-002" style="stop-color:#012782"/>
			<stop  offset="0.2556" style="stop-color:#1357B8"/>
			<stop  offset="0.4658" style="stop-color:#1F7ADE"/>
			<stop  offset="0.6331" style="stop-color:#2790F6"/>
			<stop  offset="0.7366" style="stop-color:#2A98FF"/>
			<stop  offset="0.7674" style="stop-color:#39A0FF"/>
			<stop  offset="0.8273" style="stop-color:#62B5FF"/>
			<stop  offset="0.9102" style="stop-color:#A4D7FF"/>
			<stop  offset="1" style="stop-color:#F2FFFF"/>
		</linearGradient>
		
			<circle id="XMLID_129_" fill="url(#XMLID_42_)" stroke="#F2F2F2" stroke-width="13.6277" stroke-miterlimit="10" cx="1720.4" cy="727.5" r="54.1"/>
		<linearGradient id="XMLID_43_" gradientUnits="userSpaceOnUse" x1="1717.8848" y1="1032.1934" x2="1717.8848" y2="587.9702">
			<stop  offset="0" style="stop-color:#002449"/>
			<stop  offset="0.1882" style="stop-color:#00247F"/>
			<stop  offset="0.7303" style="stop-color:#2A97FE"/>
			<stop  offset="0.7366" style="stop-color:#2A98FF"/>
			<stop  offset="0.7376" style="stop-color:#2B98FF"/>
			<stop  offset="0.8339" style="stop-color:#7FC4FF"/>
			<stop  offset="0.9126" style="stop-color:#BDE4FF"/>
			<stop  offset="0.97" style="stop-color:#E3F8FF"/>
			<stop  offset="1" style="stop-color:#F2FFFF"/>
		</linearGradient>
		<path id="XMLID_126_" fill="url(#XMLID_43_)" d="M1855.5,725.7c-0.5-4.9-23.9-25.1-23.9-25.1s-4.7-4.9-1.4-13.2
			c3.3-8.3,9-27.2,7.1-31c-1.9-3.8-31.9-8.6-31.9-8.6s-8.3-2.5-9.6-11c-1.3-8.5-4.9-28.6-9.7-31c-4.9-2.4-31.1,8.5-31.1,8.5
			s-7.1,2.4-13.5-3.6c-6.4-6-18.2-23.7-24.5-22.6c-6.3,1.1-22,26.7-31.4,26.7c-9.4,0-31.1-13.4-36.8-7.9c-5.7,5.5-5.3,33.9-13,37.9
			c-7.7,3.9-34.3,5.7-37.2,12.3c-3,6.6,11,30.8,6.9,41.2c-4.1,10.4-25.6,17.4-25.1,28.1c0.4,10.7,22.6,15.5,26.4,31.4
			c3.8,15.9-12.4,26.4-8.2,37.1c4.2,10.7,25.6,3.1,37.7,13.2c12.2,10.1,2.9,24.7,10.9,35.4c4.2,5.7,12.5,2.6,20.8-1l0,0l-12.8,189
			l62.9-57.8l63.3,58.7L1771,842.4c3.7,1.2,6.4,2.1,6.4,2.1s15.7,7.3,14.7-14.5c0,0,0.5-17.9,9.3-23.7c8.8-5.8,33-6.1,35.8-11.5
			s-7.2-30.3-7.2-30.3s-3.5-6.6,2-13.2C1837.5,744.7,1856,730.5,1855.5,725.7z M1720.4,812.6c-47,0-85.1-38.1-85.1-85.1
			c0-47,38.1-85.1,85.1-85.1c47,0,85.1,38.1,85.1,85.1C1805.5,774.5,1767.4,812.6,1720.4,812.6z"/>
		<linearGradient id="XMLID_44_" gradientUnits="userSpaceOnUse" x1="1720.3984" y1="781.5898" x2="1720.3984" y2="673.4888">
			<stop  offset="0" style="stop-color:#00247F"/>
			<stop  offset="1.287418e-002" style="stop-color:#012782"/>
			<stop  offset="0.2556" style="stop-color:#1357B8"/>
			<stop  offset="0.4658" style="stop-color:#1F7ADE"/>
			<stop  offset="0.6331" style="stop-color:#2790F6"/>
			<stop  offset="0.7366" style="stop-color:#2A98FF"/>
			<stop  offset="0.7674" style="stop-color:#39A0FF"/>
			<stop  offset="0.8273" style="stop-color:#62B5FF"/>
			<stop  offset="0.9102" style="stop-color:#A4D7FF"/>
			<stop  offset="1" style="stop-color:#F2FFFF"/>
		</linearGradient>
		<circle id="XMLID_125_" fill="url(#XMLID_44_)" cx="1720.4" cy="727.5" r="54.1"/>
		<radialGradient id="XMLID_45_" cx="1721.0859" cy="725.9658" r="36.9324" gradientUnits="userSpaceOnUse">
			<stop  offset="0" style="stop-color:#FFFF00"/>
			<stop  offset="0.146" style="stop-color:#FFEC00"/>
			<stop  offset="0.4426" style="stop-color:#FFBA00"/>
			<stop  offset="0.8595" style="stop-color:#FF6B00"/>
			<stop  offset="1" style="stop-color:#FF4F00"/>
		</radialGradient>
		<path id="XMLID_124_" fill="url(#XMLID_45_)" d="M1708.9,708.2l7.7-15.5c1.9-3.8,7.3-3.8,9.2,0l7.6,15.6c0.7,1.5,2.2,2.6,3.8,2.8
			l17.2,2.6c4.2,0.6,5.9,5.8,2.8,8.8l-12.5,12.1c-1.2,1.2-1.8,2.9-1.5,4.5l2.9,17.1c0.7,4.2-3.7,7.4-7.5,5.4l-15.3-8.1
			c-1.5-0.8-3.3-0.8-4.8,0l-15.4,8c-3.8,2-8.2-1.3-7.4-5.4l3-17.1c0.3-1.7-0.3-3.4-1.5-4.5l-12.4-12.2c-3-3-1.3-8.1,2.9-8.7
			l17.2-2.4C1706.7,710.7,1708.1,709.7,1708.9,708.2z"/>
		
			<circle id="XMLID_123_" fill="none" stroke="#002449" stroke-width="6.8138" stroke-miterlimit="10" cx="1720.4" cy="727.5" r="54.1"/>
		<path id="XMLID_120_" fill="none" stroke="#002449" stroke-width="6.8138" stroke-miterlimit="10" d="M1855.5,725.7
			c-0.5-4.9-23.9-25.1-23.9-25.1s-4.7-4.9-1.4-13.2c3.3-8.3,9-27.2,7.1-31c-1.9-3.8-31.9-8.6-31.9-8.6s-8.3-2.5-9.6-11
			c-1.3-8.5-4.9-28.6-9.7-31c-4.9-2.4-31.1,8.5-31.1,8.5s-7.1,2.4-13.5-3.6c-6.4-6-18.2-23.7-24.5-22.6c-6.3,1.1-22,26.7-31.4,26.7
			c-9.4,0-31.1-13.4-36.8-7.9c-5.7,5.5-5.3,33.9-13,37.9c-7.7,3.9-34.3,5.7-37.2,12.3c-3,6.6,11,30.8,6.9,41.2
			c-4.1,10.4-25.6,17.4-25.1,28.1c0.4,10.7,22.6,15.5,26.4,31.4c3.8,15.9-12.4,26.4-8.2,37.1c4.2,10.7,25.6,3.1,37.7,13.2
			c12.2,10.1,2.9,24.7,10.9,35.4c4.2,5.7,12.5,2.6,20.8-1l0,0l-12.8,189l62.9-57.8l63.3,58.7L1771,842.4c3.7,1.2,6.4,2.1,6.4,2.1
			s15.7,7.3,14.7-14.5c0,0,0.5-17.9,9.3-23.7c8.8-5.8,33-6.1,35.8-11.5s-7.2-30.3-7.2-30.3s-3.5-6.6,2-13.2
			C1837.5,744.7,1856,730.5,1855.5,725.7z M1720.4,812.6c-47,0-85.1-38.1-85.1-85.1c0-47,38.1-85.1,85.1-85.1
			c47,0,85.1,38.1,85.1,85.1C1805.5,774.5,1767.4,812.6,1720.4,812.6z"/>
		<path id="XMLID_119_" fill="none" stroke="#002449" stroke-width="6.8138" stroke-miterlimit="10" d="M1708.9,708.2l7.7-15.5
			c1.9-3.8,7.3-3.8,9.2,0l7.6,15.6c0.7,1.5,2.2,2.6,3.8,2.8l17.2,2.6c4.2,0.6,5.9,5.8,2.8,8.8l-12.5,12.1c-1.2,1.2-1.8,2.9-1.5,4.5
			l2.9,17.1c0.7,4.2-3.7,7.4-7.5,5.4l-15.3-8.1c-1.5-0.8-3.3-0.8-4.8,0l-15.4,8c-3.8,2-8.2-1.3-7.4-5.4l3-17.1
			c0.3-1.7-0.3-3.4-1.5-4.5l-12.4-12.2c-3-3-1.3-8.1,2.9-8.7l17.2-2.4C1706.7,710.7,1708.1,709.7,1708.9,708.2z"/>
	</g>
</g>
<g id="Rwrd_5">
	<g id="XMLID_1_">
		<polygon id="XMLID_101_" fill="none" stroke="#FFFFFF" stroke-width="15.6594" stroke-miterlimit="10" points="852.7,1360.6 
			966.9,1519.5 1052.1,1519.5 929.4,1360.6 		"/>
		<g id="XMLID_99_">
			<polygon id="XMLID_100_" fill="none" stroke="#FFFFFF" stroke-width="15.6594" stroke-miterlimit="10" points="1065.9,1514.5 
				1160.5,1360.6 1083.8,1360.6 1022.3,1460.8 			"/>
		</g>
		<path id="XMLID_96_" fill="none" stroke="#FFFFFF" stroke-width="15.6594" stroke-miterlimit="10" d="M1018.9,1531.5
			c-53.4,0-96.7,43.3-96.7,96.7c0,53.4,43.3,96.7,96.7,96.7c53.4,0,96.7-43.3,96.7-96.7C1115.6,1574.8,1072.3,1531.5,1018.9,1531.5z
			 M1018.9,1714.5c-47.6,0-86.3-38.6-86.3-86.3s38.6-86.3,86.3-86.3c47.6,0,86.3,38.6,86.3,86.3S1066.6,1714.5,1018.9,1714.5z"/>
		<path id="XMLID_95_" fill="none" stroke="#FFFFFF" stroke-width="15.6594" stroke-miterlimit="10" d="M1019.9,1660.5l30.9,16.2
			c1.5,0.8,3.2-0.5,2.9-2.1l-5.9-34.4c-0.1-0.6,0.1-1.3,0.6-1.8l25-24.3c1.2-1.1,0.5-3.2-1.1-3.4l-34.5-5c-0.6-0.1-1.2-0.5-1.5-1.1
			l-15.4-31.3c-0.7-1.5-2.8-1.5-3.6,0l-15.4,31.3c-0.3,0.6-0.8,1-1.5,1.1l-34.5,5c-1.6,0.2-2.3,2.2-1.1,3.4l25,24.3
			c0.5,0.5,0.7,1.1,0.6,1.8l-5.9,34.4c-0.3,1.6,1.4,2.9,2.9,2.1l30.9-16.2C1018.6,1660.2,1019.3,1660.2,1019.9,1660.5z"/>
		<radialGradient id="XMLID_46_" cx="1018.3276" cy="1628.2334" r="86.5603" gradientUnits="userSpaceOnUse">
			<stop  offset="0" style="stop-color:#0071BC"/>
			<stop  offset="0.4192" style="stop-color:#0073BD"/>
			<stop  offset="0.5702" style="stop-color:#007AC0"/>
			<stop  offset="0.6778" style="stop-color:#0085C6"/>
			<stop  offset="0.7648" style="stop-color:#0096CE"/>
			<stop  offset="0.8393" style="stop-color:#00ACD8"/>
			<stop  offset="0.9053" style="stop-color:#00C8E5"/>
			<stop  offset="0.9635" style="stop-color:#00E7F4"/>
			<stop  offset="1" style="stop-color:#00FFFF"/>
		</radialGradient>
		<ellipse id="XMLID_94_" fill="url(#XMLID_46_)" cx="1018.3" cy="1628.2" rx="86.9" ry="86.3"/>
		<linearGradient id="XMLID_47_" gradientUnits="userSpaceOnUse" x1="952.4253" y1="1519.5078" x2="952.4253" y2="1360.6289">
			<stop  offset="1.075270e-002" style="stop-color:#23132D"/>
			<stop  offset="0.3592" style="stop-color:#741D2D"/>
			<stop  offset="0.6882" style="stop-color:#BD262D"/>
			<stop  offset="0.7592" style="stop-color:#BD2A2D"/>
			<stop  offset="0.829" style="stop-color:#BE362D"/>
			<stop  offset="0.8984" style="stop-color:#BF492D"/>
			<stop  offset="0.9671" style="stop-color:#C0652D"/>
			<stop  offset="1" style="stop-color:#C1752D"/>
		</linearGradient>
		<polygon id="XMLID_93_" fill="url(#XMLID_47_)" points="852.7,1360.6 966.9,1519.5 1052.1,1519.5 929.4,1360.6 		"/>
		<g id="XMLID_91_">
			<linearGradient id="XMLID_48_" gradientUnits="userSpaceOnUse" x1="1091.397" y1="1516.6484" x2="1091.397" y2="1360.6289">
				<stop  offset="1.075270e-002" style="stop-color:#23132D"/>
				<stop  offset="0.3592" style="stop-color:#741D2D"/>
				<stop  offset="0.6882" style="stop-color:#BD262D"/>
				<stop  offset="0.7592" style="stop-color:#BD2A2D"/>
				<stop  offset="0.829" style="stop-color:#BE362D"/>
				<stop  offset="0.8984" style="stop-color:#BF492D"/>
				<stop  offset="0.9671" style="stop-color:#C0652D"/>
				<stop  offset="1" style="stop-color:#C1752D"/>
			</linearGradient>
			<polygon id="XMLID_92_" fill="url(#XMLID_48_)" points="1067.1,1516.6 1160.5,1360.6 1083.8,1360.6 1022.3,1460.8 			"/>
		</g>
		<linearGradient id="XMLID_54_" gradientUnits="userSpaceOnUse" x1="1018.9287" y1="1531.5215" x2="1018.9287" y2="1724.9453">
			<stop  offset="0" style="stop-color:#43DFD9"/>
			<stop  offset="9.218531e-002" style="stop-color:#40D8D9"/>
			<stop  offset="0.2228" style="stop-color:#37C6D8"/>
			<stop  offset="0.3762" style="stop-color:#28A7D6"/>
			<stop  offset="0.5457" style="stop-color:#137DD3"/>
			<stop  offset="0.6828" style="stop-color:#0056D1"/>
			<stop  offset="1" style="stop-color:#002ED1"/>
		</linearGradient>
		<path id="XMLID_85_" fill="url(#XMLID_54_)" d="M1018.9,1531.5c-53.4,0-96.7,43.3-96.7,96.7c0,53.4,43.3,96.7,96.7,96.7
			c53.4,0,96.7-43.3,96.7-96.7C1115.6,1574.8,1072.3,1531.5,1018.9,1531.5z M1018.9,1714.5c-47.6,0-86.3-38.6-86.3-86.3
			s38.6-86.3,86.3-86.3c47.6,0,86.3,38.6,86.3,86.3S1066.6,1714.5,1018.9,1714.5z"/>
		<radialGradient id="XMLID_55_" cx="1018.9292" cy="1624.623" r="53.6602" gradientUnits="userSpaceOnUse">
			<stop  offset="0" style="stop-color:#FFFF00"/>
			<stop  offset="0.1421" style="stop-color:#FCEE04"/>
			<stop  offset="0.4244" style="stop-color:#F3C10E"/>
			<stop  offset="0.8165" style="stop-color:#E47A1F"/>
			<stop  offset="1" style="stop-color:#DD5627"/>
		</radialGradient>
		<path id="XMLID_82_" fill="url(#XMLID_55_)" d="M1019.9,1660.5l30.9,16.2c1.5,0.8,3.2-0.5,2.9-2.1l-5.9-34.4
			c-0.1-0.6,0.1-1.3,0.6-1.8l25-24.3c1.2-1.1,0.5-3.2-1.1-3.4l-34.5-5c-0.6-0.1-1.2-0.5-1.5-1.1l-15.4-31.3c-0.7-1.5-2.8-1.5-3.6,0
			l-15.4,31.3c-0.3,0.6-0.8,1-1.5,1.1l-34.5,5c-1.6,0.2-2.3,2.2-1.1,3.4l25,24.3c0.5,0.5,0.7,1.1,0.6,1.8l-5.9,34.4
			c-0.3,1.6,1.4,2.9,2.9,2.1l30.9-16.2C1018.6,1660.2,1019.3,1660.2,1019.9,1660.5z"/>
		<polygon id="XMLID_80_" fill="none" stroke="#2D2112" stroke-width="6.5247" stroke-miterlimit="10" points="852.7,1360.6 
			966.9,1519.5 1052.1,1519.5 929.4,1360.6 		"/>
		<g id="XMLID_83_">
			<polygon id="XMLID_84_" fill="none" stroke="#2D2112" stroke-width="6.5247" stroke-miterlimit="10" points="1067.1,1516.6 
				1160.5,1360.6 1083.8,1360.6 1022.3,1460.8 			"/>
		</g>
		<path id="XMLID_88_" fill="none" stroke="#2D2112" stroke-width="5.2198" stroke-miterlimit="10" d="M1018.9,1531.5
			c-53.4,0-96.7,43.3-96.7,96.7c0,53.4,43.3,96.7,96.7,96.7c53.4,0,96.7-43.3,96.7-96.7C1115.6,1574.8,1072.3,1531.5,1018.9,1531.5z
			 M1018.9,1714.5c-47.6,0-86.3-38.6-86.3-86.3s38.6-86.3,86.3-86.3c47.6,0,86.3,38.6,86.3,86.3S1066.6,1714.5,1018.9,1714.5z"/>
		<path id="XMLID_81_" fill="none" stroke="#2D2112" stroke-width="5.2198" stroke-miterlimit="10" d="M1019.9,1660.5l30.9,16.2
			c1.5,0.8,3.2-0.5,2.9-2.1l-5.9-34.4c-0.1-0.6,0.1-1.3,0.6-1.8l25-24.3c1.2-1.1,0.5-3.2-1.1-3.4l-34.5-5c-0.6-0.1-1.2-0.5-1.5-1.1
			l-15.4-31.3c-0.7-1.5-2.8-1.5-3.6,0l-15.4,31.3c-0.3,0.6-0.8,1-1.5,1.1l-34.5,5c-1.6,0.2-2.3,2.2-1.1,3.4l25,24.3
			c0.5,0.5,0.7,1.1,0.6,1.8l-5.9,34.4c-0.3,1.6,1.4,2.9,2.9,2.1l30.9-16.2C1018.6,1660.2,1019.3,1660.2,1019.9,1660.5z"/>
	</g>
</g>
<g id="Rwrd_6">
	<g id="XMLID_28_">
		<path id="XMLID_34_" fill="none" stroke="#F2F2F2" stroke-width="23.0018" stroke-miterlimit="10" d="M1276.4,1361.6v152.2
			c0,1.6,0.3,3.2,0.9,4.7l14.2,74.9h5.1l24.9-50.4c1-2,3.1-3.3,5.4-3.3l0,0c1.6,0,3,0.9,3.7,2.3l25.2,51l5,0.4
			c0,0,14.4-74.9,15.3-76.9c0-0.1,0.1-0.2,0.1-0.3v-154.6H1276.4z"/>
		<path id="XMLID_33_" fill="none" stroke="#F2F2F2" stroke-width="23.0018" stroke-miterlimit="10" d="M1327.9,1693.3l54.4,28.6
			c2.6,1.3,5.6-0.8,5.1-3.7l-10.4-60.6c-0.2-1.1,0.2-2.3,1-3.1l44-42.9c2.1-2,0.9-5.6-1.9-6l-60.9-8.8c-1.1-0.2-2.1-0.9-2.6-1.9
			l-27.2-55.2c-1.3-2.6-5-2.6-6.3,0l-27.2,55.2c-0.5,1-1.5,1.8-2.6,1.9l-60.9,8.8c-2.9,0.4-4,3.9-1.9,6l44,42.9c0.8,0.8,1.2,2,1,3.1
			l-10.4,60.6c-0.5,2.9,2.5,5,5.1,3.7l54.4-28.6C1325.7,1692.8,1326.9,1692.8,1327.9,1693.3z"/>
		<linearGradient id="XMLID_56_" gradientUnits="userSpaceOnUse" x1="1326.3008" y1="1722.334" x2="1326.3008" y2="1361.6152">
			<stop  offset="0.5269" style="stop-color:#510C11"/>
			<stop  offset="0.586" style="stop-color:#6E1318"/>
			<stop  offset="0.6874" style="stop-color:#9B1E23"/>
			<stop  offset="0.7661" style="stop-color:#B7252A"/>
			<stop  offset="0.8118" style="stop-color:#C1272D"/>
			<stop  offset="0.8389" style="stop-color:#C32B32"/>
			<stop  offset="0.8711" style="stop-color:#C93640"/>
			<stop  offset="0.9058" style="stop-color:#D44958"/>
			<stop  offset="0.9424" style="stop-color:#E2637A"/>
			<stop  offset="0.98" style="stop-color:#F485A4"/>
			<stop  offset="1" style="stop-color:#FF99BE"/>
		</linearGradient>
		<path id="XMLID_32_" fill="url(#XMLID_56_)" d="M1422.1,1611.6c2.1-2,0.9-5.6-1.9-6l-60.9-8.8c-1.1-0.2-2.1-0.9-2.6-1.9l-0.7-1.4
			h4.8c0,0,14.4-74.9,15.3-76.9c0-0.1,0.1-0.2,0.1-0.3v-154.6h-99.7v152.2c0,1.6,0.3,3.2,0.9,4.7l14.2,74.9h5.1l-0.7,1.4
			c-0.5,1-1.5,1.8-2.6,1.9l-60.9,8.8c-2.9,0.4-4,3.9-1.9,6l44,42.9c0.8,0.8,1.2,2,1,3.1l-10.4,60.6c-0.5,2.9,2.5,5,5.1,3.7
			l54.4-28.6c1-0.5,2.2-0.5,3.3,0l54.4,28.6c2.6,1.3,5.6-0.8,5.1-3.7l-10.4-60.6c-0.2-1.1,0.2-2.3,1-3.1L1422.1,1611.6z"/>
		<radialGradient id="XMLID_57_" cx="1326.3008" cy="1630.0352" r="94.6116" gradientUnits="userSpaceOnUse">
			<stop  offset="0" style="stop-color:#FFFF00"/>
			<stop  offset="0.146" style="stop-color:#FFEC00"/>
			<stop  offset="0.4426" style="stop-color:#FFBA00"/>
			<stop  offset="0.8595" style="stop-color:#FF6B00"/>
			<stop  offset="1" style="stop-color:#FF4F00"/>
		</radialGradient>
		<path id="XMLID_31_" fill="url(#XMLID_57_)" d="M1327.9,1693.3l54.4,28.6c2.6,1.3,5.6-0.8,5.1-3.7l-10.4-60.6
			c-0.2-1.1,0.2-2.3,1-3.1l44-42.9c2.1-2,0.9-5.6-1.9-6l-60.9-8.8c-1.1-0.2-2.1-0.9-2.6-1.9l-27.2-55.2c-1.3-2.6-5-2.6-6.3,0
			l-27.2,55.2c-0.5,1-1.5,1.8-2.6,1.9l-60.9,8.8c-2.9,0.4-4,3.9-1.9,6l44,42.9c0.8,0.8,1.2,2,1,3.1l-10.4,60.6
			c-0.5,2.9,2.5,5,5.1,3.7l54.4-28.6C1325.7,1692.8,1326.9,1692.8,1327.9,1693.3z"/>
		<path id="XMLID_30_" fill="none" stroke="#510C11" stroke-width="11.5009" stroke-miterlimit="10" d="M1276.4,1361.6v152.2
			c0,1.6,0.3,3.2,0.9,4.7l14.2,74.9h5.1l24.9-50.4c1-2,3.1-3.3,5.4-3.3l0,0c1.6,0,3,0.9,3.7,2.3l25.2,51l5,0.4
			c0,0,14.4-74.9,15.3-76.9c0-0.1,0.1-0.2,0.1-0.3v-154.6H1276.4z"/>
		<path id="XMLID_29_" fill="none" stroke="#510C11" stroke-width="11.5009" stroke-miterlimit="10" d="M1327.9,1693.3l54.4,28.6
			c2.6,1.3,5.6-0.8,5.1-3.7l-10.4-60.6c-0.2-1.1,0.2-2.3,1-3.1l44-42.9c2.1-2,0.9-5.6-1.9-6l-60.9-8.8c-1.1-0.2-2.1-0.9-2.6-1.9
			l-27.2-55.2c-1.3-2.6-5-2.6-6.3,0l-27.2,55.2c-0.5,1-1.5,1.8-2.6,1.9l-60.9,8.8c-2.9,0.4-4,3.9-1.9,6l44,42.9c0.8,0.8,1.2,2,1,3.1
			l-10.4,60.6c-0.5,2.9,2.5,5,5.1,3.7l54.4-28.6C1325.7,1692.8,1326.9,1692.8,1327.9,1693.3z"/>
	</g>
</g>
</svg>
